<svg width="54" height="811" viewBox="0 0 54 811" fill="none" xmlns="http://www.w3.org/2000/svg">
<path d="M2 760.646L2.47382 759.766L0.999996 758.973V760.646H2ZM41.55 781.926L41.0762 782.807L41.0794 782.809L41.55 781.926ZM49.46 788.646L50.2897 788.088L50.2875 788.085L49.46 788.646ZM50.51 804.256L50.2107 805.21L51.071 805.48L51.4282 804.652L50.51 804.256ZM43.37 802.016L42.4168 801.714L42.1136 802.67L43.0707 802.97L43.37 802.016ZM39.73 789.976L39.1867 790.816L39.1965 790.822L39.73 789.976ZM38.54 789.206L39.0833 788.367L38.5884 788.046L38.0686 788.324L38.54 789.206ZM2 808.736H0.999996V810.405L2.47137 809.618L2 808.736ZM2 799.006L1.55018 798.113L0.999996 798.39V799.006H2ZM30.77 784.516L31.2198 785.409L32.9679 784.529L31.2301 783.628L30.77 784.516ZM2 769.606H0.999996V770.214L1.53987 770.494L2 769.606ZM1.52618 761.527L41.0762 782.807L42.0238 781.046L2.47382 759.766L1.52618 761.527ZM41.0794 782.809C44.4721 784.618 46.9707 786.759 48.6325 789.208L50.2875 788.085C48.4026 785.307 45.6279 782.968 42.0206 781.044L41.0794 782.809ZM48.6303 789.204C50.2483 791.609 51.05 794.216 51.05 797.046H53.05C53.05 793.81 52.125 790.816 50.2897 788.088L48.6303 789.204ZM51.05 797.046C51.05 799.328 50.5682 801.597 49.5918 803.86L51.4282 804.652C52.5051 802.156 53.05 799.618 53.05 797.046H51.05ZM50.8093 803.302L43.6693 801.062L43.0707 802.97L50.2107 805.21L50.8093 803.302ZM44.3232 802.318C44.9448 800.358 45.28 798.661 45.28 797.256H43.28C43.28 798.371 43.0085 799.848 42.4168 801.714L44.3232 802.318ZM45.28 797.256C45.28 793.894 43.5135 791.18 40.2635 789.13L39.1965 790.822C42.0132 792.599 43.28 794.738 43.28 797.256H45.28ZM40.2733 789.137L39.0833 788.367L37.9967 790.046L39.1867 790.816L40.2733 789.137ZM38.0686 788.324L1.52862 807.854L2.47137 809.618L39.0114 790.088L38.0686 788.324ZM3 808.736V799.006H0.999996V808.736H3ZM2.44982 799.899L31.2198 785.409L30.3202 783.623L1.55018 798.113L2.44982 799.899ZM31.2301 783.628L2.46012 768.718L1.53987 770.494L30.3099 785.404L31.2301 783.628ZM3 769.606V760.646H0.999996V769.606H3ZM25.45 728.079L24.5309 728.473L25.5898 730.944L26.4031 728.382L25.45 728.079ZM30 721.219L30.6139 722.009L30.6237 722.001L30.6332 721.993L30 721.219ZM44.98 721.569L45.6454 720.823L45.6374 720.816L44.98 721.569ZM49.95 729.269L49.0098 729.61L49.0114 729.614L49.95 729.269ZM50.37 749.569L51.3315 749.844L51.3338 749.836L51.336 749.828L50.37 749.569ZM46.24 758.669L45.8356 759.584L46.6144 759.928L47.0784 759.214L46.24 758.669ZM39.59 755.729L38.7607 755.17L38.0932 756.161L39.1856 756.644L39.59 755.729ZM42.95 748.589L43.9069 748.88L43.9093 748.872L43.9115 748.864L42.95 748.589ZM41.9 731.649L41.0368 732.154L41.0411 732.161L41.9 731.649ZM31.05 730.599L30.2045 730.065L31.05 730.599ZM29.37 749.359V750.359H30.37V749.359H29.37ZM22.23 749.359H21.23V750.359H22.23V749.359ZM20.55 732.279L19.7413 732.867L20.55 732.279ZM10.68 733.119L11.5324 733.642L11.5375 733.634L10.68 733.119ZM9.77 747.819L10.7378 747.568L10.7355 747.559L10.733 747.55L9.77 747.819ZM12.5 754.399L12.8637 755.331L13.9592 754.903L13.3609 753.89L12.5 754.399ZM5.15 757.269L4.269 757.742L4.68827 758.523L5.51373 758.201L5.15 757.269ZM2.14 749.289L3.11391 749.062L3.11107 749.05L2.14 749.289ZM2.77 730.809L3.70811 731.156L3.70979 731.151L2.77 730.809ZM7.6 723.459L8.25497 724.215L8.26331 724.208L7.6 723.459ZM26.4031 728.382C27.2853 725.603 28.698 723.499 30.6139 722.009L29.3861 720.43C27.102 722.206 25.4814 724.675 24.4969 727.777L26.4031 728.382ZM30.6332 721.993C32.4975 720.468 34.697 719.699 37.28 719.699V717.699C34.263 717.699 31.6092 718.611 29.3668 720.445L30.6332 721.993ZM37.28 719.699C39.981 719.699 42.3135 720.57 44.3226 722.323L45.6374 720.816C43.2599 718.742 40.459 717.699 37.28 717.699V719.699ZM44.3146 722.316C46.3158 724.099 47.8889 726.516 49.0098 729.61L50.8902 728.929C49.6778 725.582 47.9375 722.866 45.6454 720.823L44.3146 722.316ZM49.0114 729.614C50.133 732.665 50.7 736.023 50.7 739.699H52.7C52.7 735.815 52.1004 732.22 50.8886 728.924L49.0114 729.614ZM50.7 739.699C50.7 742.874 50.2692 746.077 49.404 749.311L51.336 749.828C52.2441 746.434 52.7 743.057 52.7 739.699H50.7ZM49.4085 749.294C48.502 752.467 47.1664 755.409 45.4016 758.124L47.0784 759.214C48.9536 756.329 50.3713 753.205 51.3315 749.844L49.4085 749.294ZM46.6443 757.755L39.9944 754.815L39.1856 756.644L45.8356 759.584L46.6443 757.755ZM40.4193 756.288C41.9246 754.054 43.0862 751.583 43.9069 748.88L41.9931 748.299C41.2271 750.822 40.1487 753.111 38.7607 755.17L40.4193 756.288ZM43.9115 748.864C44.6822 746.167 45.07 743.484 45.07 740.819H43.07C43.07 743.288 42.7111 745.785 41.9885 748.314L43.9115 748.864ZM45.07 740.819C45.07 737.006 44.322 733.759 42.7589 731.137L41.0411 732.161C42.3713 734.393 43.07 737.259 43.07 740.819H45.07ZM42.7632 731.144C41.1666 728.415 38.8799 726.939 35.95 726.939V728.939C38.0601 728.939 39.7401 729.937 41.0368 732.154L42.7632 731.144ZM35.95 726.939C33.47 726.939 31.5129 727.994 30.2045 730.065L31.8955 731.133C32.8271 729.658 34.1367 728.939 35.95 728.939V726.939ZM30.2045 730.065C28.9455 732.059 28.37 734.72 28.37 737.949H30.37C30.37 734.925 30.9145 732.687 31.8955 731.133L30.2045 730.065ZM28.37 737.949V749.359H30.37V737.949H28.37ZM29.37 748.359H22.23V750.359H29.37V748.359ZM23.23 749.359V738.649H21.23V749.359H23.23ZM23.23 738.649C23.23 735.817 22.6456 733.46 21.3587 731.691L19.7413 732.867C20.6944 734.178 21.23 736.068 21.23 738.649H23.23ZM21.3587 731.691C20.0495 729.891 18.2314 728.969 16 728.969V730.969C17.5952 730.969 18.8105 731.588 19.7413 732.867L21.3587 731.691ZM16 728.969C13.3328 728.969 11.2477 730.229 9.82251 732.605L11.5375 733.634C12.6323 731.809 14.0938 730.969 16 730.969V728.969ZM9.82767 732.596C8.44378 734.851 7.79 737.685 7.79 741.029H9.79C9.79 737.933 10.3962 735.494 11.5323 733.642L9.82767 732.596ZM7.79 741.029C7.79 743.323 8.13167 745.677 8.80703 748.089L10.733 747.55C10.1017 745.295 9.79 743.122 9.79 741.029H7.79ZM8.80217 748.071C9.43205 750.493 10.3778 752.773 11.6391 754.908L13.3609 753.89C12.1956 751.918 11.3213 749.812 10.7378 747.568L8.80217 748.071ZM12.1363 753.468L4.78627 756.338L5.51373 758.201L12.8637 755.331L12.1363 753.468ZM6.03099 756.796C4.71951 754.354 3.74728 751.777 3.11384 749.062L1.16616 749.516C1.83938 752.402 2.87382 755.144 4.269 757.742L6.03099 756.796ZM3.11107 749.05C2.42938 746.278 2.09 743.535 2.09 740.819H0.0899963C0.0899963 743.703 0.450611 746.607 1.16893 749.528L3.11107 749.05ZM2.09 740.819C2.09 737.283 2.63385 734.065 3.7081 731.156L1.8319 730.463C0.666143 733.62 0.0899963 737.076 0.0899963 740.819H2.09ZM3.70979 731.151C4.78209 728.202 6.30489 725.905 8.25493 724.215L6.94507 722.704C4.69511 724.653 2.99791 727.256 1.83021 730.467L3.70979 731.151ZM8.26331 724.208C10.1296 722.553 12.3189 721.729 14.88 721.729V719.729C11.8411 719.729 9.17702 720.725 6.93669 722.711L8.26331 724.208ZM14.88 721.729C17.1158 721.729 19.0311 722.327 20.6668 723.502L21.8332 721.877C19.8289 720.438 17.4976 719.729 14.88 719.729V721.729ZM20.6668 723.502C22.3228 724.69 23.6145 726.335 24.5309 728.473L26.3691 727.685C25.3255 725.25 23.8172 723.301 21.8332 721.877L20.6668 723.502ZM2 664.84V663.84H0.999996V664.84H2ZM51 664.84H52V663.84H51V664.84ZM51 673.94V674.94H52V673.94H51ZM30 673.94V672.94H29V673.94H30ZM30 699.28H29V700.28H30V699.28ZM51 699.28H52V698.28H51V699.28ZM51 708.38V709.38H52V708.38H51ZM2 708.38H0.999996V709.38H2V708.38ZM2 699.28V698.28H0.999996V699.28H2ZM22.23 699.28V700.28H23.23V699.28H22.23ZM22.23 673.94H23.23V672.94H22.23V673.94ZM2 673.94H0.999996V674.94H2V673.94ZM2 665.84H51V663.84H2V665.84ZM50 664.84V673.94H52V664.84H50ZM51 672.94H30V674.94H51V672.94ZM29 673.94V699.28H31V673.94H29ZM30 700.28H51V698.28H30V700.28ZM50 699.28L50 708.38H52L52 699.28H50ZM51 707.38H2V709.38H51V707.38ZM3 708.38V699.28H0.999996V708.38H3ZM2 700.28H22.23V698.28H2V700.28ZM23.23 699.28V673.94H21.23V699.28H23.23ZM22.23 672.94H2V674.94H22.23V672.94ZM3 673.94V664.84H0.999996V673.94H3ZM39.66 618.615L39.2633 617.697L38.66 617.958V618.615H39.66ZM39.66 643.115H38.66V643.776L39.2681 644.035L39.66 643.115ZM51 647.945H52V647.284L51.3919 647.025L51 647.945ZM51 657.325L50.5896 658.237L52 658.872V657.325H51ZM2 635.275H0.999996V635.922L1.58963 636.187L2 635.275ZM2 626.315L1.58855 625.404L0.999996 625.669V626.315H2ZM51 604.195H52V602.646L50.5886 603.284L51 604.195ZM51 613.715L51.3967 614.633L52 614.372V613.715H51ZM32.52 621.625H33.52V620.105L32.1239 620.707L32.52 621.625ZM11.1 630.865L10.7039 629.947L8.56723 630.869L10.7064 631.784L11.1 630.865ZM32.52 640.035L32.1264 640.954L33.52 641.551V640.035H32.52ZM38.66 618.615V643.115H40.66V618.615H38.66ZM39.2681 644.035L50.6081 648.865L51.3919 647.025L40.0519 642.195L39.2681 644.035ZM50 647.945V657.325H52V647.945H50ZM51.4104 656.413L2.41036 634.363L1.58963 636.187L50.5896 658.237L51.4104 656.413ZM3 635.275V626.315H0.999996V635.275H3ZM2.41144 627.227L51.4114 605.107L50.5886 603.284L1.58855 625.404L2.41144 627.227ZM50 604.195V613.715H52V604.195H50ZM50.6033 612.797L39.2633 617.697L40.0567 619.533L51.3967 614.633L50.6033 612.797ZM32.1239 620.707L10.7039 629.947L11.4961 631.783L32.9161 622.543L32.1239 620.707ZM10.7064 631.784L32.1264 640.954L32.9136 639.116L11.4936 629.946L10.7064 631.784ZM33.52 640.035V621.625H31.52V640.035H33.52ZM9.7 563.582H10.7V562.582H9.7V563.582ZM9.7 579.822H8.7V580.822H9.7V579.822ZM51 579.822H52V578.822H51V579.822ZM51 588.852V589.852H52V588.852H51ZM9.7 588.852V587.852H8.7V588.852H9.7ZM9.7 605.022V606.022H10.7V605.022H9.7ZM2 605.022H0.999996V606.022H2V605.022ZM2 563.582V562.582H0.999996V563.582H2ZM8.7 563.582V579.822H10.7V563.582H8.7ZM9.7 580.822H51V578.822H9.7V580.822ZM50 579.822V588.852H52V579.822H50ZM51 587.852H9.7V589.852H51V587.852ZM8.7 588.852V605.022H10.7V588.852H8.7ZM9.7 604.022H2V606.022H9.7V604.022ZM3 605.022V563.582H0.999996V605.022H3ZM2 564.582H9.7V562.582H2V564.582ZM22.58 519.614L23.3417 520.262L23.3468 520.256L23.3519 520.249L22.58 519.614ZM46.73 520.034L47.5017 519.398L47.4965 519.392L46.73 520.034ZM51 555.664V556.664H52V555.664H51ZM2 555.664H0.999996V556.664H2V555.664ZM2 546.704V545.704H0.999996V546.704H2ZM18.59 546.704V547.704H19.59V546.704H18.59ZM41.55 526.824L40.7894 527.473L41.55 526.824ZM25.52 546.704H24.52V547.704H25.52V546.704ZM44 546.704V547.704H45V546.704H44ZM19.59 533.124C19.59 527.38 20.8902 523.143 23.3417 520.262L21.8183 518.966C18.9498 522.338 17.59 527.107 17.59 533.124H19.59ZM23.3519 520.249C25.7274 517.365 29.3043 515.854 34.27 515.854V513.854C28.8757 513.854 24.6593 515.516 21.8081 518.978L23.3519 520.249ZM34.27 515.854C39.4532 515.854 43.2987 517.495 45.9635 520.676L47.4965 519.392C44.3747 515.665 39.9135 513.854 34.27 513.854V515.854ZM45.9584 520.67C48.6083 523.884 50 528.481 50 534.594H52C52 528.199 50.545 523.09 47.5016 519.398L45.9584 520.67ZM50 534.594V555.664H52V534.594H50ZM51 554.664H2V556.664H51V554.664ZM3 555.664V546.704H0.999996V555.664H3ZM2 547.704H18.59V545.704H2V547.704ZM19.59 546.704V533.124H17.59V546.704H19.59ZM45 535.014C45 531.326 44.1513 528.331 42.3106 526.174L40.7894 527.473C42.2154 529.143 43 531.609 43 535.014H45ZM42.3106 526.174C40.4423 523.986 37.7521 522.954 34.41 522.954V524.954C37.3212 524.954 39.3911 525.835 40.7894 527.473L42.3106 526.174ZM34.41 522.954C31.2276 522.954 28.6815 523.954 26.9631 526.092C25.2782 528.188 24.52 531.219 24.52 535.014H26.52C26.52 531.435 27.2435 528.936 28.5219 527.345C29.7668 525.797 31.6657 524.954 34.41 524.954V522.954ZM24.52 535.014V546.704H26.52V535.014H24.52ZM25.52 547.704H44V545.704H25.52V547.704ZM45 546.704V535.014H43V546.704H45ZM48.48 477.042L49.3575 477.522L49.3618 477.514L48.48 477.042ZM39.45 486.492L39.9584 487.353L39.963 487.351L39.45 486.492ZM13.62 486.492L14.133 485.634L14.1284 485.631L13.62 486.492ZM4.59 477.042L5.47182 476.571L5.4675 476.563L4.59 477.042ZM4.59 450.022L5.46754 450.502L5.47178 450.494L4.59 450.022ZM13.55 440.572L13.037 439.714H13.037L13.55 440.572ZM39.45 440.572L39.963 439.714L39.45 440.572ZM48.48 450.022L49.3618 449.551L49.3575 449.543L48.48 450.022ZM41.55 454.712L42.425 454.228L42.4182 454.216L41.55 454.712ZM35.39 448.552L35.8862 447.684L35.8795 447.68L35.39 448.552ZM17.68 448.552L18.1695 449.424L18.1761 449.421L17.68 448.552ZM11.52 454.712L12.3883 455.208L12.3949 455.197L11.52 454.712ZM11.52 472.352L12.395 471.868L12.3882 471.856L11.52 472.352ZM17.68 478.512L18.1762 477.644L18.1695 477.64L17.68 478.512ZM35.39 478.512L35.8795 479.384L35.8861 479.38L35.39 478.512ZM41.55 472.352L42.4183 472.848L42.4249 472.837L41.55 472.352ZM50.7 463.532C50.7 468.377 49.6599 472.716 47.5982 476.571L49.3618 477.514C51.5934 473.342 52.7 468.674 52.7 463.532H50.7ZM47.6025 476.563C45.4924 480.424 42.6065 483.441 38.937 485.634L39.963 487.351C43.9469 484.97 47.0809 481.687 49.3575 477.522L47.6025 476.563ZM38.9416 485.631C35.2314 487.822 31.092 488.922 26.5 488.922V490.922C31.428 490.922 35.922 489.736 39.9584 487.353L38.9416 485.631ZM26.5 488.922C21.9079 488.922 17.794 487.822 14.133 485.634L13.107 487.351C17.0993 489.736 21.5721 490.922 26.5 490.922V488.922ZM14.1284 485.631C10.4148 483.439 7.5331 480.424 5.47178 476.571L3.70821 477.514C5.94023 481.687 9.07851 484.972 13.1116 487.353L14.1284 485.631ZM5.4675 476.563C3.36178 472.71 2.3 468.374 2.3 463.532H0.299997C0.299997 468.677 1.43155 473.348 3.71249 477.522L5.4675 476.563ZM2.3 463.532C2.3 458.691 3.36178 454.355 5.4675 450.502L3.71249 449.543C1.43155 453.716 0.299997 458.387 0.299997 463.532H2.3ZM5.47178 450.494C7.53476 446.637 10.3954 443.622 14.063 441.431L13.037 439.714C9.05122 442.096 5.93857 445.381 3.70821 449.551L5.47178 450.494ZM14.063 441.431C17.7225 439.244 21.8593 438.142 26.5 438.142V436.142C21.5273 436.142 17.0309 437.327 13.037 439.714L14.063 441.431ZM26.5 438.142C31.1407 438.142 35.2775 439.244 38.937 441.431L39.963 439.714C35.9691 437.327 31.4727 436.142 26.5 436.142V438.142ZM38.937 441.431C42.6065 443.623 45.4924 446.641 47.6025 450.502L49.3575 449.543C47.0809 445.377 43.9469 442.094 39.963 439.714L38.937 441.431ZM47.5982 450.494C49.6599 454.348 50.7 458.687 50.7 463.532H52.7C52.7 458.391 51.5934 453.723 49.3618 449.551L47.5982 450.494ZM44.72 463.532C44.72 460.112 43.9612 457.003 42.4249 454.228L40.6751 455.197C42.0322 457.648 42.72 460.419 42.72 463.532H44.72ZM42.4182 454.216C40.8363 451.448 38.6545 449.266 35.8861 447.684L34.8939 449.421C37.3522 450.825 39.277 452.75 40.6818 455.208L42.4182 454.216ZM35.8795 447.68C33.0595 446.097 29.9256 445.312 26.5 445.312V447.312C29.6078 447.312 32.4005 448.021 34.9005 449.424L35.8795 447.68ZM26.5 445.312C23.0746 445.312 19.961 446.097 17.1839 447.684L18.1761 449.421C20.6256 448.021 23.3921 447.312 26.5 447.312V445.312ZM17.1905 447.68C14.3721 449.263 12.1837 451.449 10.6451 454.228L12.3949 455.197C13.7496 452.749 15.6679 450.829 18.1695 449.424L17.1905 447.68ZM10.6518 454.216C9.0648 456.993 8.28 460.107 8.28 463.532H10.28C10.28 460.424 10.9885 457.658 12.3882 455.208L10.6518 454.216ZM8.28 463.532C8.28 466.958 9.0648 470.071 10.6518 472.848L12.3882 471.856C10.9885 469.407 10.28 466.64 10.28 463.532H8.28ZM10.6451 472.837C12.1837 475.616 14.3721 477.802 17.1905 479.384L18.1695 477.64C15.6679 476.236 13.7496 474.315 12.3949 471.868L10.6451 472.837ZM17.1839 479.381C19.961 480.967 23.0746 481.752 26.5 481.752V479.752C23.3921 479.752 20.6256 479.044 18.1761 477.644L17.1839 479.381ZM26.5 481.752C29.9256 481.752 33.0595 480.967 35.8795 479.384L34.9005 477.64C32.4005 479.044 29.6078 479.752 26.5 479.752V481.752ZM35.8861 479.38C38.6545 477.799 40.8363 475.617 42.4182 472.848L40.6818 471.856C39.277 474.314 37.3522 476.239 34.8939 477.644L35.8861 479.38ZM42.4249 472.837C43.9612 470.061 44.72 466.952 44.72 463.532H42.72C42.72 466.646 42.0322 469.416 40.6751 471.868L42.4249 472.837ZM25.52 375.466L24.598 375.853L25.7284 378.544L26.4858 375.725L25.52 375.466ZM29.86 368.326L30.4826 369.108L30.4913 369.101L29.86 368.326ZM51 407.666V408.666H52V407.666H51ZM2 407.666H0.999996V408.666H2V407.666ZM5.29 372.876L4.47543 372.296L5.29 372.876ZM21.25 370.146L20.6905 370.975L20.6977 370.979L20.705 370.984L21.25 370.146ZM22.93 398.706V399.706H23.93V398.706H22.93ZM21.18 379.806L20.3829 380.41H20.3829L21.18 379.806ZM10.82 379.806L11.6055 380.425L11.6114 380.417L11.6171 380.41L10.82 379.806ZM9 398.706H8V399.706H9V398.706ZM29.58 398.706H28.58V399.706H29.58V398.706ZM44 398.706V399.706H45V398.706H44ZM26.4858 375.725C27.2835 372.756 28.6325 370.58 30.4825 369.108L29.2375 367.543C26.9808 369.338 25.4365 371.922 24.5542 375.206L26.4858 375.725ZM30.4913 369.101C32.2899 367.637 34.5752 366.876 37.42 366.876V364.876C34.1982 364.876 31.4435 365.747 29.2287 367.55L30.4913 369.101ZM37.42 366.876C41.4286 366.876 44.4562 368.337 46.63 371.236L48.23 370.036C45.6438 366.587 41.998 364.876 37.42 364.876V366.876ZM46.63 371.236C48.8284 374.167 50 378.516 50 384.426H52C52 378.295 50.7916 373.451 48.23 370.036L46.63 371.236ZM50 384.426V407.666H52V384.426H50ZM51 406.666H2V408.666H51V406.666ZM3 407.666L3 385.756H0.999996L0.999996 407.666H3ZM3 385.756C3 380.366 4.07552 376.305 6.10456 373.456L4.47543 372.296C2.11781 375.606 0.999996 380.132 0.999996 385.756H3ZM6.10456 373.456C8.09711 370.658 10.8867 369.256 14.6 369.256V367.256C10.2866 367.256 6.86955 368.934 4.47543 372.296L6.10456 373.456ZM14.6 369.256C16.996 369.256 19.0114 369.841 20.6905 370.975L21.8095 369.317C19.7552 367.93 17.3373 367.256 14.6 367.256V369.256ZM20.705 370.984C22.3814 372.074 23.6847 373.678 24.598 375.853L26.442 375.078C25.3953 372.586 23.852 370.644 21.795 369.307L20.705 370.984ZM23.93 398.706V386.526H21.93V398.706H23.93ZM23.93 386.526C23.93 383.475 23.3282 380.985 21.9771 379.202L20.3829 380.41C21.3651 381.706 21.93 383.696 21.93 386.526H23.93ZM21.9771 379.202C20.5854 377.365 18.535 376.496 16 376.496V378.496C18.0384 378.496 19.4412 379.167 20.3829 380.41L21.9771 379.202ZM16 376.496C13.465 376.496 11.4146 377.365 10.0229 379.202L11.6171 380.41C12.5588 379.167 13.9616 378.496 16 378.496V376.496ZM10.0345 379.187C8.62789 380.972 8 383.468 8 386.526H10C10 383.703 10.5854 381.719 11.6055 380.425L10.0345 379.187ZM8 386.526L8 398.706H10V386.526H8ZM9 399.706H22.93V397.706H9V399.706ZM45 384.706C45 381.389 44.3801 378.719 42.9786 376.859C41.537 374.946 39.3889 374.046 36.72 374.046V376.046C38.9045 376.046 40.3964 376.756 41.3814 378.063C42.4066 379.423 43 381.583 43 384.706H45ZM36.72 374.046C34.0905 374.046 31.9763 374.951 30.5608 376.866C29.1872 378.725 28.58 381.392 28.58 384.706H30.58C30.58 381.58 31.1628 379.417 32.1692 378.055C33.1337 376.75 34.5895 376.046 36.72 376.046V374.046ZM28.58 384.706V398.706H30.58V384.706H28.58ZM29.58 399.706H44V397.706H29.58V399.706ZM45 398.706V384.706H43V398.706H45ZM22.58 319.389L23.3417 320.037L23.3468 320.031L23.3519 320.025L22.58 319.389ZM46.73 319.809L47.5017 319.173L47.4965 319.167L46.73 319.809ZM51 355.439V356.439H52V355.439H51ZM2 355.439H0.999996V356.439H2V355.439ZM2 346.479V345.479H0.999996V346.479H2ZM18.59 346.479V347.479H19.59V346.479H18.59ZM41.55 326.599L40.7894 327.248L41.55 326.599ZM25.52 346.479H24.52V347.479H25.52V346.479ZM44 346.479V347.479H45V346.479H44ZM2 307.559H0.999996V308.559H2V307.559ZM2 298.599V297.599H0.999996V298.599H2ZM51 298.599H52V297.599H51V298.599ZM51 307.559V308.559H52V307.559H51ZM19.59 332.899C19.59 327.156 20.8902 322.919 23.3417 320.037L21.8183 318.741C18.9498 322.113 17.59 326.883 17.59 332.899H19.59ZM23.3519 320.025C25.7274 317.14 29.3043 315.629 34.27 315.629V313.629C28.8757 313.629 24.6593 315.291 21.8081 318.753L23.3519 320.025ZM34.27 315.629C39.4532 315.629 43.2987 317.271 45.9635 320.451L47.4965 319.167C44.3747 315.441 39.9135 313.629 34.27 313.629V315.629ZM45.9584 320.445C48.6083 323.66 50 328.257 50 334.369H52C52 327.975 50.545 322.865 47.5016 319.173L45.9584 320.445ZM50 334.369V355.439H52V334.369H50ZM51 354.439H2V356.439H51V354.439ZM3 355.439V346.479H0.999996V355.439H3ZM2 347.479H18.59V345.479H2V347.479ZM19.59 346.479V332.899H17.59V346.479H19.59ZM45 334.789C45 331.101 44.1513 328.106 42.3106 325.95L40.7894 327.248C42.2154 328.919 43 331.384 43 334.789H45ZM42.3106 325.95C40.4423 323.761 37.7521 322.729 34.41 322.729V324.729C37.3212 324.729 39.3911 325.61 40.7894 327.248L42.3106 325.95ZM34.41 322.729C31.2276 322.729 28.6815 323.73 26.9631 325.868C25.2782 327.964 24.52 330.995 24.52 334.789H26.52C26.52 331.21 27.2435 328.711 28.5219 327.121C29.7668 325.572 31.6657 324.729 34.41 324.729V322.729ZM24.52 334.789V346.479H26.52V334.789H24.52ZM25.52 347.479H44V345.479H25.52V347.479ZM45 346.479V334.789H43V346.479H45ZM3 307.559V298.599H0.999996V307.559H3ZM2 299.599H51V297.599H2V299.599ZM50 298.599V307.559H52V298.599H50ZM51 306.559H2V308.559H51V306.559ZM48.48 275.726L49.3552 276.209L49.3618 276.197L48.48 275.726ZM39.45 285.106L39.9552 285.969L39.963 285.964L39.45 285.106ZM13.55 285.036L13.037 285.894L13.55 285.036ZM4.59 275.656L5.46948 275.18L5.4675 275.176L4.59 275.656ZM3.4 251.226L4.32115 251.615L3.4 251.226ZM9.49 242.826L10.2184 242.14L9.56329 241.444L8.83811 242.067L9.49 242.826ZM15.02 248.706L15.6998 249.439L16.4386 248.754L15.7485 248.02L15.02 248.706ZM11.52 270.826L12.3986 270.348L12.392 270.336L11.52 270.826ZM17.61 277.056L18.1061 276.187L17.61 277.056ZM35.39 277.056L35.8861 277.924L35.39 277.056ZM41.55 270.826L42.4221 271.315L42.4285 271.303L41.55 270.826ZM37.91 248.706L37.1859 248.016L36.4825 248.754L37.2347 249.443L37.91 248.706ZM43.51 242.826L44.1619 242.067L43.4412 241.448L42.7859 242.136L43.51 242.826ZM49.6 251.296L48.6769 251.68L48.6789 251.685L49.6 251.296ZM50.7 262.286C50.7 267.082 49.6607 271.398 47.5982 275.254L49.3618 276.197C51.5927 272.026 52.7 267.382 52.7 262.286H50.7ZM47.6049 275.242C45.4955 279.056 42.6094 282.053 38.937 284.247L39.963 285.964C43.944 283.585 47.0778 280.328 49.3551 276.209L47.6049 275.242ZM38.9448 284.243C35.2842 286.385 31.1445 287.466 26.5 287.466V289.466C31.4688 289.466 35.9625 288.306 39.9552 285.969L38.9448 284.243ZM26.5 287.466C21.8593 287.466 17.7225 286.364 14.063 284.177L13.037 285.894C17.0309 288.281 21.5273 289.466 26.5 289.466V287.466ZM14.063 284.177C10.3925 281.984 7.53163 278.99 5.46947 275.18L3.71052 276.131C5.9417 280.254 9.05414 283.514 13.037 285.894L14.063 284.177ZM5.4675 275.176C3.36102 271.322 2.3 267.009 2.3 262.216H0.299997C0.299997 267.316 1.43231 271.963 3.71249 276.135L5.4675 275.176ZM2.3 262.216C2.3 258.32 2.97889 254.791 4.32115 251.615L2.47885 250.836C1.0211 254.286 0.299997 258.084 0.299997 262.216H2.3ZM4.32115 251.615C5.66266 248.44 7.60196 245.767 10.1419 243.584L8.83811 242.067C6.05804 244.457 3.93734 247.385 2.47885 250.836L4.32115 251.615ZM8.76154 243.511L14.2915 249.391L15.7485 248.02L10.2184 242.14L8.76154 243.511ZM14.3402 247.972C10.3111 251.706 8.28 256.335 8.28 261.796H10.28C10.28 256.896 12.0756 252.798 15.6998 249.439L14.3402 247.972ZM8.28 261.796C8.28 265.309 9.06244 268.491 10.648 271.315L12.392 270.336C10.9909 267.84 10.28 265.002 10.28 261.796H8.28ZM10.6415 271.303C12.1763 274.125 14.3383 276.338 17.1139 277.924L18.1061 276.187C15.6551 274.787 13.757 272.846 12.3985 270.348L10.6415 271.303ZM17.1139 277.924C19.8932 279.512 23.0306 280.296 26.5 280.296V278.296C23.3427 278.296 20.5535 277.586 18.1061 276.187L17.1139 277.924ZM26.5 280.296C29.9694 280.296 33.1068 279.512 35.8861 277.924L34.8939 276.187C32.4465 277.586 29.6573 278.296 26.5 278.296V280.296ZM35.8861 277.924C38.659 276.339 40.8412 274.131 42.422 271.315L40.678 270.336C39.2721 272.84 37.3477 274.785 34.8939 276.187L35.8861 277.924ZM42.4285 271.303C43.9634 268.481 44.72 265.304 44.72 261.796H42.72C42.72 265.007 42.03 267.85 40.6715 270.348L42.4285 271.303ZM44.72 261.796C44.72 256.331 42.6623 251.701 38.5853 247.968L37.2347 249.443C40.9044 252.803 42.72 256.9 42.72 261.796H44.72ZM38.6341 249.395L44.2341 243.515L42.7859 242.136L37.1859 248.016L38.6341 249.395ZM42.8581 243.584C45.3953 245.765 47.3346 248.459 48.6769 251.68L50.5231 250.911C49.0654 247.413 46.9447 244.459 44.1619 242.067L42.8581 243.584ZM48.6789 251.685C50.0211 254.861 50.7 258.39 50.7 262.286H52.7C52.7 258.154 51.9789 254.356 50.5211 250.906L48.6789 251.685ZM9.7 199.363H10.7V198.363H9.7V199.363ZM9.7 215.603H8.7V216.603H9.7V215.603ZM51 215.603H52V214.603H51V215.603ZM51 224.633V225.633H52V224.633H51ZM9.7 224.633V223.633H8.7V224.633H9.7ZM9.7 240.803V241.803H10.7V240.803H9.7ZM2 240.803H0.999996V241.803H2V240.803ZM2 199.363V198.363H0.999996V199.363H2ZM8.7 199.363V215.603H10.7V199.363H8.7ZM9.7 216.603H51V214.603H9.7V216.603ZM50 215.603V224.633H52V215.603H50ZM51 223.633H9.7V225.633H51V223.633ZM8.7 224.633V240.803H10.7V224.633H8.7ZM9.7 239.803H2V241.803H9.7V239.803ZM3 240.803L3 199.363H0.999996L0.999996 240.803H3ZM2 200.363H9.7V198.363H2V200.363ZM39.66 161.496L39.2633 160.578L38.66 160.839V161.496H39.66ZM39.66 185.996H38.66V186.657L39.2681 186.916L39.66 185.996ZM51 190.826H52V190.165L51.3919 189.906L51 190.826ZM51 200.206L50.5896 201.118L52 201.753V200.206H51ZM2 178.156H0.999996V178.803L1.58963 179.068L2 178.156ZM2 169.196L1.58855 168.284L0.999996 168.55V169.196H2ZM51 147.076H52V145.527L50.5886 146.164L51 147.076ZM51 156.596L51.3967 157.514L52 157.253V156.596H51ZM32.52 164.506H33.52V162.985L32.1239 163.588L32.52 164.506ZM11.1 173.746L10.7039 172.828L8.56723 173.749L10.7064 174.665L11.1 173.746ZM32.52 182.916L32.1264 183.835L33.52 184.432L33.52 182.916H32.52ZM38.66 161.496L38.66 185.996H40.66V161.496H38.66ZM39.2681 186.916L50.6081 191.746L51.3919 189.906L40.0519 185.076L39.2681 186.916ZM50 190.826V200.206H52V190.826H50ZM51.4104 199.294L2.41036 177.244L1.58963 179.068L50.5896 201.118L51.4104 199.294ZM3 178.156V169.196H0.999996V178.156H3ZM2.41144 170.107L51.4114 147.987L50.5886 146.164L1.58855 168.284L2.41144 170.107ZM50 147.076V156.596H52V147.076H50ZM50.6033 155.678L39.2633 160.578L40.0567 162.414L51.3967 157.514L50.6033 155.678ZM32.1239 163.588L10.7039 172.828L11.4961 174.664L32.9161 165.424L32.1239 163.588ZM10.7064 174.665L32.1264 183.835L32.9136 181.997L11.4936 172.827L10.7064 174.665ZM33.52 182.916V164.506H31.52V182.916H33.52ZM25.52 107.292L24.598 107.679L25.7284 110.37L26.4858 107.551L25.52 107.292ZM29.86 100.152L30.4826 100.935L30.4913 100.927L29.86 100.152ZM51 139.492V140.492H52V139.492H51ZM2 139.492H0.999996V140.492H2V139.492ZM5.29 104.702L4.47543 104.122L5.29 104.702ZM21.25 101.972L20.6905 102.801L20.6977 102.806L20.705 102.81L21.25 101.972ZM22.93 130.532V131.532H23.93V130.532H22.93ZM21.18 111.632L20.3829 112.236H20.3829L21.18 111.632ZM10.82 111.632L11.6055 112.251L11.6114 112.243L11.6171 112.236L10.82 111.632ZM9 130.532H8V131.532H9V130.532ZM29.58 130.532H28.58V131.532H29.58V130.532ZM44 130.532V131.532H45V130.532H44ZM26.4858 107.551C27.2835 104.582 28.6325 102.406 30.4825 100.934L29.2375 99.3693C26.9808 101.164 25.4365 103.748 24.5542 107.032L26.4858 107.551ZM30.4913 100.927C32.2899 99.4634 34.5752 98.7018 37.42 98.7018V96.7018C34.1982 96.7018 31.4435 97.5736 29.2287 99.3763L30.4913 100.927ZM37.42 98.7018C41.4286 98.7018 44.4562 100.163 46.63 103.062L48.23 101.862C45.6438 98.4136 41.998 96.7018 37.42 96.7018V98.7018ZM46.63 103.062C48.8284 105.993 50 110.342 50 116.252H52C52 110.121 50.7916 105.277 48.23 101.862L46.63 103.062ZM50 116.252V139.492H52V116.252H50ZM51 138.492H2V140.492H51V138.492ZM3 139.492V117.582H0.999996V139.492H3ZM3 117.582C3 112.192 4.07552 108.131 6.10456 105.282L4.47543 104.122C2.11781 107.432 0.999996 111.958 0.999996 117.582H3ZM6.10456 105.282C8.09711 102.484 10.8867 101.082 14.6 101.082V99.0818C10.2866 99.0818 6.86955 100.76 4.47543 104.122L6.10456 105.282ZM14.6 101.082C16.996 101.082 19.0114 101.667 20.6905 102.801L21.8095 101.143C19.7552 99.7564 17.3373 99.0818 14.6 99.0818V101.082ZM20.705 102.81C22.3814 103.9 23.6847 105.504 24.598 107.679L26.442 106.905C25.3953 104.413 23.852 102.47 21.795 101.133L20.705 102.81ZM23.93 130.532V118.352H21.93V130.532H23.93ZM23.93 118.352C23.93 115.301 23.3282 112.812 21.9771 111.028L20.3829 112.236C21.3651 113.532 21.93 115.522 21.93 118.352H23.93ZM21.9771 111.028C20.5854 109.191 18.535 108.322 16 108.322V110.322C18.0384 110.322 19.4412 110.993 20.3829 112.236L21.9771 111.028ZM16 108.322C13.465 108.322 11.4146 109.191 10.0229 111.028L11.6171 112.236C12.5588 110.993 13.9616 110.322 16 110.322V108.322ZM10.0345 111.013C8.62789 112.798 8 115.295 8 118.352H10C10 115.529 10.5854 113.545 11.6055 112.251L10.0345 111.013ZM8 118.352V130.532H10V118.352H8ZM9 131.532H22.93V129.532H9V131.532ZM45 116.532C45 113.215 44.3801 110.545 42.9786 108.685C41.537 106.772 39.3889 105.872 36.72 105.872V107.872C38.9045 107.872 40.3964 108.582 41.3814 109.889C42.4066 111.249 43 113.409 43 116.532H45ZM36.72 105.872C34.0905 105.872 31.9763 106.777 30.5608 108.693C29.1872 110.551 28.58 113.218 28.58 116.532H30.58C30.58 113.406 31.1628 111.243 32.1692 109.881C33.1337 108.576 34.5895 107.872 36.72 107.872V105.872ZM28.58 116.532V130.532H30.58V116.532H28.58ZM29.58 131.532H44V129.532H29.58V131.532ZM45 130.532V116.532H43V130.532H45ZM30.35 69.2753L29.7793 68.4541L29.35 68.7525V69.2753H30.35ZM30.35 78.3753H29.35V79.3753H30.35V78.3753ZM51 78.3753H52V77.3753H51V78.3753ZM51 87.3353V88.3353H52V87.3353H51ZM2 87.3353H0.999996V88.3353H2V87.3353ZM2 78.3753V77.3753H0.999996V78.3753H2ZM22.51 78.3753V79.3753H23.51V78.3753H22.51ZM22.51 68.9953H23.51V68.4686L23.0757 68.1707L22.51 68.9953ZM2 54.9253H0.999996V55.452L1.4343 55.7499L2 54.9253ZM2 45.2653L2.57621 44.448L0.999996 43.3367V45.2653H2ZM25.73 61.9953L25.1538 62.8126L25.7226 63.2136L26.2962 62.8196L25.73 61.9953ZM51 44.6353H52V42.7351L50.4338 43.8111L51 44.6353ZM51 54.9253L51.5707 55.7465L52 55.4481V54.9253H51ZM29.35 69.2753V78.3753H31.35V69.2753H29.35ZM30.35 79.3753H51V77.3753H30.35V79.3753ZM50 78.3753V87.3353H52V78.3753H50ZM51 86.3353H2V88.3353H51V86.3353ZM3 87.3353V78.3753H0.999996V87.3353H3ZM2 79.3753H22.51V77.3753H2V79.3753ZM23.51 78.3753V68.9953H21.51V78.3753H23.51ZM23.0757 68.1707L2.56569 54.1007L1.4343 55.7499L21.9443 69.8199L23.0757 68.1707ZM3 54.9253V45.2653H0.999996V54.9253H3ZM1.42379 46.0826L25.1538 62.8126L26.3062 61.178L2.57621 44.448L1.42379 46.0826ZM26.2962 62.8196L51.5662 45.4595L50.4338 43.8111L25.1638 61.1711L26.2962 62.8196ZM50 44.6353V54.9253H52V44.6353H50ZM50.4293 54.1041L29.7793 68.4541L30.9207 70.0965L51.5707 55.7465L50.4293 54.1041ZM43.37 1.70837V0.708374H42.37V1.70837H43.37ZM51 1.70837H52V0.708374H51V1.70837ZM51 38.4584V39.4584H52V38.4584H51ZM2 38.4584H0.999996L0.999996 39.4584H2L2 38.4584ZM2 2.68835V1.68835H0.999996V2.68835H2ZM9.63 2.68835H10.63V1.68835H9.63V2.68835ZM9.63 29.3583H8.63V30.3583H9.63V29.3583ZM22.37 29.3583V30.3583H23.37V29.3583H22.37ZM22.37 5.69836V4.69836H21.37V5.69836H22.37ZM29.86 5.69836H30.86V4.69836H29.86V5.69836ZM29.86 29.3583H28.86V30.3583H29.86V29.3583ZM43.37 29.3583V30.3583H44.37V29.3583H43.37ZM43.37 2.70837H51V0.708374H43.37V2.70837ZM50 1.70837L50 38.4584H52L52 1.70837H50ZM51 37.4584H2L2 39.4584H51V37.4584ZM3 38.4584V2.68835H0.999996V38.4584H3ZM2 3.68835H9.63V1.68835H2V3.68835ZM8.63 2.68835V29.3583H10.63V2.68835H8.63ZM9.63 30.3583H22.37V28.3583H9.63V30.3583ZM23.37 29.3583V5.69836H21.37V29.3583H23.37ZM22.37 6.69836H29.86V4.69836H22.37V6.69836ZM28.86 5.69836V29.3583H30.86V5.69836H28.86ZM29.86 30.3583H43.37V28.3583H29.86V30.3583ZM44.37 29.3583L44.37 1.70837H42.37L42.37 29.3583H44.37Z" fill="#FDF9FA"/>
</svg>
