<svg width="55" height="568" viewBox="0 0 55 568" fill="none" xmlns="http://www.w3.org/2000/svg">
<path d="M49.48 554.09L50.3552 554.574L50.3618 554.561L49.48 554.09ZM40.45 563.47L40.9552 564.333L40.963 564.328L40.45 563.47ZM14.55 563.4L14.037 564.258L14.55 563.4ZM5.59 554.02L6.46948 553.544L6.4675 553.54L5.59 554.02ZM4.4 529.59L5.32115 529.979L5.32115 529.979L4.4 529.59ZM10.49 521.19L11.2185 520.505L10.5633 519.808L9.83811 520.431L10.49 521.19ZM16.02 527.07L16.6998 527.803L17.4386 527.118L16.7485 526.385L16.02 527.07ZM12.52 549.19L13.3986 548.712L13.392 548.7L12.52 549.19ZM18.61 555.42L19.1061 554.552L19.1061 554.552L18.61 555.42ZM36.39 555.42L36.8861 556.288L36.8861 556.288L36.39 555.42ZM42.55 549.19L43.4221 549.679L43.4285 549.668L42.55 549.19ZM38.91 527.07L38.1859 526.38L37.4825 527.119L38.2347 527.807L38.91 527.07ZM44.51 521.19L45.1619 520.431L44.4412 519.812L43.7859 520.5L44.51 521.19ZM50.6 529.66L49.6769 530.044L49.6789 530.049L50.6 529.66ZM51.7 540.65C51.7 545.447 50.6607 549.762 48.5982 553.618L50.3618 554.561C52.5927 550.391 53.7 545.746 53.7 540.65H51.7ZM48.6049 553.606C46.4955 557.421 43.6094 560.417 39.937 562.611L40.963 564.328C44.944 561.949 48.0778 558.692 50.3551 554.574L48.6049 553.606ZM39.9448 562.607C36.2842 564.75 32.1445 565.83 27.5 565.83V567.83C32.4688 567.83 36.9625 566.67 40.9552 564.333L39.9448 562.607ZM27.5 565.83C22.8593 565.83 18.7225 564.728 15.063 562.541L14.037 564.258C18.0309 566.645 22.5273 567.83 27.5 567.83V565.83ZM15.063 562.541C11.3925 560.348 8.53163 557.354 6.46947 553.544L4.71052 554.496C6.9417 558.619 10.0541 561.878 14.037 564.258L15.063 562.541ZM6.4675 553.54C4.36102 549.686 3.3 545.373 3.3 540.58H1.3C1.3 545.68 2.43231 550.327 4.71249 554.499L6.4675 553.54ZM3.3 540.58C3.3 536.685 3.97889 533.156 5.32115 529.979L3.47885 529.201C2.0211 532.651 1.3 536.448 1.3 540.58H3.3ZM5.32115 529.979C6.66266 526.804 8.60196 524.132 11.1419 521.948L9.83811 520.431C7.05804 522.821 4.93734 525.749 3.47885 529.201L5.32115 529.979ZM9.76154 521.875L15.2915 527.755L16.7485 526.385L11.2185 520.505L9.76154 521.875ZM15.3402 526.336C11.3111 530.071 9.28 534.699 9.28 540.16H11.28C11.28 535.26 13.0756 531.162 16.6998 527.803L15.3402 526.336ZM9.28 540.16C9.28 543.673 10.0624 546.855 11.648 549.679L13.392 548.7C11.9909 546.205 11.28 543.366 11.28 540.16H9.28ZM11.6415 549.668C13.1763 552.49 15.3383 554.702 18.1139 556.288L19.1061 554.552C16.6551 553.151 14.757 551.21 13.3985 548.712L11.6415 549.668ZM18.1139 556.288C20.8932 557.876 24.0306 558.66 27.5 558.66V556.66C24.3427 556.66 21.5535 555.95 19.1061 554.552L18.1139 556.288ZM27.5 558.66C30.9694 558.66 34.1068 557.876 36.8861 556.288L35.8939 554.552C33.4465 555.95 30.6573 556.66 27.5 556.66V558.66ZM36.8861 556.288C39.659 554.704 41.8412 552.495 43.422 549.679L41.678 548.7C40.2721 551.205 38.3477 553.149 35.8939 554.552L36.8861 556.288ZM43.4285 549.668C44.9634 546.845 45.72 543.668 45.72 540.16H43.72C43.72 543.372 43.03 546.214 41.6715 548.712L43.4285 549.668ZM45.72 540.16C45.72 534.695 43.6623 530.065 39.5853 526.332L38.2347 527.807C41.9044 531.168 43.72 535.265 43.72 540.16H45.72ZM39.6341 527.759L45.2341 521.879L43.7859 520.5L38.1859 526.38L39.6341 527.759ZM43.8581 521.948C46.3953 524.129 48.3346 526.823 49.6769 530.044L51.5231 529.275C50.0654 525.777 47.9447 522.824 45.1619 520.431L43.8581 521.948ZM49.6789 530.049C51.0211 533.226 51.7 536.755 51.7 540.65H53.7C53.7 536.518 52.9789 532.721 51.5211 529.271L49.6789 530.049ZM31.35 494.681L30.7793 493.859L30.35 494.158V494.681H31.35ZM31.35 503.781H30.35V504.781H31.35V503.781ZM52 503.781H53V502.781H52V503.781ZM52 512.741V513.741H53V512.741H52ZM3 512.741H2V513.741H3V512.741ZM3 503.781V502.781H2V503.781H3ZM23.51 503.781V504.781H24.51V503.781H23.51ZM23.51 494.401H24.51V493.874L24.0757 493.576L23.51 494.401ZM3 480.331H2V480.857L2.4343 481.155L3 480.331ZM3 470.671L3.57621 469.853L2 468.742V470.671H3ZM26.73 487.401L26.1538 488.218L26.7226 488.619L27.2962 488.225L26.73 487.401ZM52 470.041H53V468.14L51.4338 469.216L52 470.041ZM52 480.331L52.5707 481.152L53 480.853V480.331H52ZM30.35 494.681V503.781H32.35V494.681H30.35ZM31.35 504.781H52V502.781H31.35V504.781ZM51 503.781V512.741H53V503.781H51ZM52 511.741H3V513.741H52V511.741ZM4 512.741V503.781H2V512.741H4ZM3 504.781H23.51V502.781H3V504.781ZM24.51 503.781V494.401H22.51V503.781H24.51ZM24.0757 493.576L3.56569 479.506L2.4343 481.155L22.9443 495.225L24.0757 493.576ZM4 480.331V470.671H2V480.331H4ZM2.42379 471.488L26.1538 488.218L27.3062 486.583L3.57621 469.853L2.42379 471.488ZM27.2962 488.225L52.5662 470.865L51.4338 469.216L26.1638 486.576L27.2962 488.225ZM51 470.041V480.331H53V470.041H51ZM51.4293 479.509L30.7793 493.859L31.9207 495.502L52.5707 481.152L51.4293 479.509ZM5.1 432.644L6.0127 433.052L6.01492 433.047L5.1 432.644ZM11.12 425.364L11.6608 426.205L11.6608 426.205L11.12 425.364ZM29.74 425.364L30.2808 424.522L30.274 424.518L29.74 425.364ZM35.76 432.644L34.8451 433.047L34.8473 433.052L35.76 432.644ZM37.86 454.764H36.86V455.764H37.86V454.764ZM52 454.764H53V453.764H52V454.764ZM52 463.864V464.864H53V463.864H52ZM3 463.864H2V464.864H3V463.864ZM27.64 435.094L26.866 435.727L26.866 435.727L27.64 435.094ZM13.22 435.094L13.994 435.727L13.994 435.727L13.22 435.094ZM10.7 454.764H9.7V455.764H10.7V454.764ZM30.16 454.764V455.764H31.16V454.764H30.16ZM4 443.704C4 439.565 4.6823 436.023 6.01268 433.052L4.18731 432.235C2.7177 435.517 2 439.349 2 443.704H4ZM6.01492 433.047C7.34533 430.032 9.23116 427.767 11.6608 426.205L10.5792 424.522C7.78216 426.321 5.65467 428.909 4.18508 432.24L6.01492 433.047ZM11.6608 426.205C14.0888 424.644 16.9977 423.844 20.43 423.844V421.844C16.6756 421.844 13.3779 422.723 10.5792 424.522L11.6608 426.205ZM20.43 423.844C23.8124 423.844 26.7255 424.643 29.206 426.209L30.274 424.518C27.4345 422.725 24.1409 421.844 20.43 421.844V423.844ZM29.1992 426.205C31.6288 427.767 33.5147 430.032 34.8451 433.047L36.6749 432.24C35.2053 428.909 33.0778 426.321 30.2808 424.522L29.1992 426.205ZM34.8473 433.052C36.1777 436.023 36.86 439.565 36.86 443.704H38.86C38.86 439.349 38.1423 435.517 36.6727 432.235L34.8473 433.052ZM36.86 443.704V454.764H38.86V443.704H36.86ZM37.86 455.764H52V453.764H37.86V455.764ZM51 454.764V463.864H53V454.764H51ZM52 462.864H3V464.864H52V462.864ZM4 463.864V443.704H2V463.864H4ZM31.16 444.124C31.16 440.036 30.2972 436.762 28.414 434.46L26.866 435.727C28.3428 437.532 29.16 440.278 29.16 444.124H31.16ZM28.414 434.46C26.5093 432.132 23.797 431.014 20.43 431.014V433.014C23.3163 433.014 25.4107 433.948 26.866 435.727L28.414 434.46ZM20.43 431.014C17.063 431.014 14.3507 432.132 12.446 434.46L13.994 435.727C15.4493 433.948 17.5437 433.014 20.43 433.014V431.014ZM12.446 434.46C10.5628 436.762 9.7 440.036 9.7 444.124H11.7C11.7 440.278 12.5172 437.532 13.994 435.727L12.446 434.46ZM9.7 444.124V454.764H11.7V444.124H9.7ZM10.7 455.764H30.16V453.764H10.7V455.764ZM31.16 454.764V444.124H29.16V454.764H31.16ZM23.58 378.115L24.3417 378.763L24.3468 378.757L24.3519 378.75L23.58 378.115ZM47.73 378.535L48.5017 377.899L48.4965 377.893L47.73 378.535ZM52 414.165V415.165H53V414.165H52ZM3 414.165H2V415.165H3V414.165ZM3 405.205V404.205H2V405.205H3ZM19.59 405.205V406.205H20.59V405.205H19.59ZM42.55 385.325L41.7894 385.974L41.7894 385.974L42.55 385.325ZM26.52 405.205H25.52V406.205H26.52V405.205ZM45 405.205V406.205H46V405.205H45ZM3 366.285H2V367.285H3V366.285ZM3 357.325V356.325H2V357.325H3ZM52 357.325H53V356.325H52V357.325ZM52 366.285V367.285H53V366.285H52ZM20.59 391.625C20.59 385.881 21.8902 381.644 24.3417 378.763L22.8183 377.467C19.9498 380.839 18.59 385.608 18.59 391.625H20.59ZM24.3519 378.75C26.7274 375.866 30.3043 374.355 35.27 374.355V372.355C29.8757 372.355 25.6593 374.017 22.8081 377.479L24.3519 378.75ZM35.27 374.355C40.4532 374.355 44.2986 375.996 46.9635 379.177L48.4965 377.893C45.3747 374.166 40.9135 372.355 35.27 372.355V374.355ZM46.9584 379.171C49.6083 382.385 51 386.982 51 393.095H53C53 386.7 51.545 381.591 48.5016 377.899L46.9584 379.171ZM51 393.095V414.165H53V393.095H51ZM52 413.165H3V415.165H52V413.165ZM4 414.165V405.205H2V414.165H4ZM3 406.205H19.59V404.205H3V406.205ZM20.59 405.205V391.625H18.59V405.205H20.59ZM46 393.515C46 389.827 45.1513 386.832 43.3106 384.675L41.7894 385.974C43.2154 387.644 44 390.11 44 393.515H46ZM43.3106 384.675C41.4423 382.487 38.7521 381.455 35.41 381.455V383.455C38.3212 383.455 40.3911 384.336 41.7894 385.974L43.3106 384.675ZM35.41 381.455C32.2276 381.455 29.6815 382.455 27.9631 384.593C26.2782 386.689 25.52 389.72 25.52 393.515H27.52C27.52 389.936 28.2435 387.437 29.5219 385.846C30.7668 384.297 32.6657 383.455 35.41 383.455V381.455ZM25.52 393.515V405.205H27.52V393.515H25.52ZM26.52 406.205H45V404.205H26.52V406.205ZM46 405.205V393.515H44V405.205H46ZM4 366.285V357.325H2V366.285H4ZM3 358.325H52V356.325H3V358.325ZM51 357.325V366.285H53V357.325H51ZM52 365.285H3V367.285H52V365.285ZM10.7 307.991H11.7V306.991H10.7V307.991ZM10.7 324.231H9.7V325.231H10.7V324.231ZM52 324.231H53V323.231H52V324.231ZM52 333.261V334.261H53V333.261H52ZM10.7 333.261V332.261H9.7V333.261H10.7ZM10.7 349.431V350.431H11.7V349.431H10.7ZM3 349.431H2V350.431H3V349.431ZM3 307.991V306.991H2V307.991H3ZM9.7 307.991V324.231H11.7V307.991H9.7ZM10.7 325.231H52V323.231H10.7V325.231ZM51 324.231V333.261H53V324.231H51ZM52 332.261H10.7V334.261H52V332.261ZM9.7 333.261V349.431H11.7V333.261H9.7ZM10.7 348.431H3V350.431H10.7V348.431ZM4 349.431L4 307.991H2L2 349.431H4ZM3 308.991H10.7V306.991H3V308.991ZM23.58 264.023L24.3417 264.671L24.3468 264.665L24.3519 264.659L23.58 264.023ZM47.73 264.443L48.5017 263.807L48.4965 263.801L47.73 264.443ZM52 300.073V301.073H53V300.073H52ZM3 300.073H2V301.073H3V300.073ZM3 291.113V290.113H2V291.113H3ZM19.59 291.113V292.113H20.59V291.113H19.59ZM42.55 271.233L41.7894 271.882L41.7894 271.882L42.55 271.233ZM26.52 291.113H25.52V292.113H26.52V291.113ZM45 291.113V292.113H46V291.113H45ZM20.59 277.533C20.59 271.789 21.8902 267.552 24.3417 264.671L22.8183 263.375C19.9498 266.747 18.59 271.516 18.59 277.533H20.59ZM24.3519 264.659C26.7274 261.774 30.3043 260.263 35.27 260.263V258.263C29.8757 258.263 25.6593 259.925 22.8081 263.387L24.3519 264.659ZM35.27 260.263C40.4532 260.263 44.2986 261.905 46.9635 265.085L48.4965 263.801C45.3747 260.075 40.9135 258.263 35.27 258.263V260.263ZM46.9584 265.079C49.6083 268.294 51 272.891 51 279.003H53C53 272.609 51.545 267.499 48.5016 263.807L46.9584 265.079ZM51 279.003V300.073H53V279.003H51ZM52 299.073H3V301.073H52V299.073ZM4 300.073V291.113H2V300.073H4ZM3 292.113H19.59V290.113H3V292.113ZM20.59 291.113V277.533H18.59V291.113H20.59ZM46 279.423C46 275.735 45.1513 272.74 43.3106 270.584L41.7894 271.882C43.2154 273.553 44 276.018 44 279.423H46ZM43.3106 270.584C41.4423 268.395 38.7521 267.363 35.41 267.363V269.363C38.3212 269.363 40.3911 270.244 41.7894 271.882L43.3106 270.584ZM35.41 267.363C32.2276 267.363 29.6815 268.364 27.9631 270.501C26.2782 272.598 25.52 275.629 25.52 279.423H27.52C27.52 275.844 28.2435 273.345 29.5219 271.754C30.7668 270.206 32.6657 269.363 35.41 269.363V267.363ZM25.52 279.423V291.113H27.52V279.423H25.52ZM26.52 292.113H45V290.113H26.52V292.113ZM46 291.113V279.423H44V291.113H46ZM3 230.551H2V231.551H3V230.551ZM3 221.591V220.591H2V221.591H3ZM37.79 221.591V222.591H40.7693L38.3933 220.794L37.79 221.591ZM3 195.271H2V195.769L2.39666 196.069L3 195.271ZM3 186.801V185.801H2V186.801H3ZM52 186.801H53V185.801H52V186.801ZM52 195.761V196.761H53V195.761H52ZM17.28 195.761V194.761H14.3055L16.6759 196.558L17.28 195.761ZM52 222.081H53V221.585L52.6041 221.285L52 222.081ZM52 230.551V231.551H53V230.551H52ZM4 230.551V221.591H2V230.551H4ZM3 222.591H37.79V220.591H3V222.591ZM38.3933 220.794L3.60333 194.474L2.39666 196.069L37.1867 222.389L38.3933 220.794ZM4 195.271V186.801H2V195.271H4ZM3 187.801H52V185.801H3V187.801ZM51 186.801V195.761H53V186.801H51ZM52 194.761H17.28V196.761H52V194.761ZM16.6759 196.558L51.3959 222.878L52.6041 221.285L17.8841 194.965L16.6759 196.558ZM51 222.081V230.551H53V222.081H51ZM52 229.551H3V231.551H52V229.551ZM3 129.523V128.523H2V129.523H3ZM52 129.523H53V128.523H52V129.523ZM52 138.623V139.623H53V138.623H52ZM31 138.623V137.623H30V138.623H31ZM31 163.963H30V164.963H31V163.963ZM52 163.963H53V162.963H52V163.963ZM52 173.063V174.063H53V173.063H52ZM3 173.063H2V174.063H3V173.063ZM3 163.963V162.963H2V163.963H3ZM23.23 163.963V164.963H24.23V163.963H23.23ZM23.23 138.623H24.23V137.623H23.23V138.623ZM3 138.623H2V139.623H3V138.623ZM3 130.523H52V128.523H3V130.523ZM51 129.523V138.623H53V129.523H51ZM52 137.623H31V139.623H52V137.623ZM30 138.623V163.963H32V138.623H30ZM31 164.963H52V162.963H31V164.963ZM51 163.963V173.063H53V163.963H51ZM52 172.063H3V174.063H52V172.063ZM4 173.063V163.963H2V173.063H4ZM3 164.963H23.23V162.963H3V164.963ZM24.23 163.963V138.623H22.23V163.963H24.23ZM23.23 137.623H3V139.623H23.23V137.623ZM4 138.623V129.523H2V138.623H4ZM42.69 66.4977L43.4582 65.8575L43.4582 65.8575L42.69 66.4977ZM48.78 85.6077L47.7808 85.6472L47.8188 86.6077H48.78V85.6077ZM53.96 85.6077H54.96V84.6077H53.96V85.6077ZM53.96 94.0077V95.0077H54.96V94.0077H53.96ZM48.78 94.0077V93.0077H47.8296L47.7813 93.9569L48.78 94.0077ZM42.62 113.188L43.3922 113.823L43.3954 113.819L42.62 113.188ZM12.24 113.188L13.0122 112.552L13.0115 112.551L12.24 113.188ZM6.01 94.0077L7.00871 93.9569L6.96044 93.0077H6.01V94.0077ZM1.04 94.0077H0.0399969V95.0077H1.04V94.0077ZM1.04 85.6077V84.6077H0.0399969V85.6077H1.04ZM6.01 85.6077V86.6077H6.96044L7.00871 85.6585L6.01 85.6077ZM12.24 66.4977L13.0082 67.1379L13.0122 67.1331L12.24 66.4977ZM41.64 85.6077V86.6077H42.7178L42.6372 85.5329L41.64 85.6077ZM37.44 72.8677L38.2123 72.2324L38.2062 72.2251L37.44 72.8677ZM17.35 72.9377L18.1223 73.573L18.1272 73.5669L17.35 72.9377ZM13.22 85.6077L12.2223 85.5406L12.1505 86.6077H13.22V85.6077ZM37.37 106.678L38.1423 107.313L38.1472 107.307L37.37 106.678ZM41.64 94.0077L42.6364 94.0921L42.7283 93.0077H41.64V94.0077ZM13.22 94.0077V93.0077H12.1432L12.2227 94.0816L13.22 94.0077ZM27.43 60.7777C33.6082 60.7777 38.3998 62.9115 41.9218 67.1379L43.4582 65.8575C39.5136 61.1239 34.1318 58.7777 27.43 58.7777V60.7777ZM41.9218 67.1379C45.4658 71.3907 47.4593 77.5179 47.7808 85.6472L49.7792 85.5682C49.4474 77.1775 47.3809 70.5647 43.4582 65.8575L41.9218 67.1379ZM48.78 86.6077H53.96V84.6077H48.78V86.6077ZM52.96 85.6077V94.0077H54.96V85.6077H52.96ZM53.96 93.0077H48.78V95.0077H53.96V93.0077ZM47.7813 93.9569C47.3677 102.09 45.3514 108.25 41.8446 112.556L43.3954 113.819C47.262 109.072 49.3523 102.445 49.7787 94.0585L47.7813 93.9569ZM41.8478 112.552C38.3736 116.774 33.6083 118.908 27.43 118.908V120.908C34.1317 120.908 39.4931 118.561 43.3922 113.823L41.8478 112.552ZM27.43 118.908C21.2517 118.908 16.4864 116.774 13.0122 112.552L11.4678 113.823C15.3669 118.561 20.7283 120.908 27.43 120.908V118.908ZM13.0115 112.551C9.46069 108.246 7.42215 102.088 7.00871 93.9569L5.01129 94.0585C5.43785 102.448 7.55265 109.076 11.4685 113.824L13.0115 112.551ZM6.01 93.0077H1.04V95.0077H6.01V93.0077ZM2.04 94.0077L2.04 85.6077H0.0399969L0.0399969 94.0077H2.04ZM1.04 86.6077H6.01V84.6077H1.04V86.6077ZM7.00871 85.6585C7.42218 77.5269 9.46085 71.3947 13.0082 67.1379L11.4718 65.8575C7.55248 70.5607 5.43782 77.1685 5.01129 85.5569L7.00871 85.6585ZM13.0122 67.1331C16.4864 62.9112 21.2517 60.7777 27.43 60.7777V58.7777C20.7283 58.7777 15.3669 61.1242 11.4678 65.8623L13.0122 67.1331ZM42.6372 85.5329C42.209 79.8242 40.7737 75.3463 38.2123 72.2324L36.6677 73.503C38.8663 76.1757 40.231 80.1912 40.6428 85.6825L42.6372 85.5329ZM38.2062 72.2251C35.5622 69.0726 31.9036 67.5277 27.36 67.5277V69.5277C31.403 69.5277 34.4645 70.8761 36.6738 73.5103L38.2062 72.2251ZM27.36 67.5277C22.8109 67.5277 19.1698 69.1004 16.5728 72.3085L18.1272 73.5669C20.2902 70.895 23.3225 69.5277 27.36 69.5277V67.5277ZM16.5777 72.3024C14.0148 75.4181 12.6031 79.875 12.2223 85.5406L14.2177 85.6748C14.5835 80.2337 15.9252 76.244 18.1223 73.573L16.5777 72.3024ZM13.22 86.6077H41.64V84.6077H13.22V86.6077ZM27.43 112.018C31.9308 112.018 35.5455 110.47 38.1423 107.313L36.5977 106.042C34.4345 108.672 31.4226 110.018 27.43 110.018V112.018ZM38.1472 107.307C40.6989 104.155 42.1603 99.7109 42.6364 94.0921L40.6436 93.9233C40.1864 99.3178 38.8011 103.32 36.5928 106.048L38.1472 107.307ZM41.64 93.0077H13.22V95.0077H41.64V93.0077ZM12.2227 94.0816C12.6504 99.8548 14.0781 104.345 16.6351 107.406C19.2263 110.508 22.8725 112.018 27.43 112.018V110.018C23.3542 110.018 20.3153 108.692 18.1699 106.124C15.9903 103.515 14.6296 99.5006 14.2173 93.9338L12.2227 94.0816ZM49.48 41.0511L50.3575 41.5306L50.3618 41.5227L49.48 41.0511ZM40.45 50.5011L40.9584 51.3622L40.963 51.3595L40.45 50.5011ZM14.62 50.5011L15.133 49.6426L15.1284 49.6399L14.62 50.5011ZM5.59 41.0511L6.47182 40.5794L6.4675 40.5715L5.59 41.0511ZM5.59 14.0311L6.46754 14.5106L6.47178 14.5027L5.59 14.0311ZM14.55 4.58105L14.037 3.72264L14.037 3.72264L14.55 4.58105ZM40.45 4.58105L40.963 3.72264L40.963 3.72264L40.45 4.58105ZM49.48 14.0311L50.3618 13.5594L50.3575 13.5515L49.48 14.0311ZM42.55 18.7211L43.425 18.2367L43.4182 18.2249L42.55 18.7211ZM36.39 12.5611L36.8862 11.6928L36.8795 11.6891L36.39 12.5611ZM18.68 12.5611L19.1695 13.4331L19.1761 13.4293L18.68 12.5611ZM12.52 18.7211L13.3883 19.2172L13.3949 19.2054L12.52 18.7211ZM12.52 36.3611L13.395 35.8767L13.3882 35.8649L12.52 36.3611ZM18.68 42.5211L19.1762 41.6528L19.1695 41.6491L18.68 42.5211ZM36.39 42.5211L36.8795 43.3931L36.8861 43.3893L36.39 42.5211ZM42.55 36.3611L43.4183 36.8572L43.4249 36.8454L42.55 36.3611ZM51.7 27.5411C51.7 32.3862 50.6599 36.7249 48.5982 40.5794L50.3618 41.5227C52.5934 37.3505 53.7 32.6826 53.7 27.5411H51.7ZM48.6025 40.5715C46.4924 44.4325 43.6065 47.4499 39.937 49.6426L40.963 51.3595C44.9469 48.9788 48.081 45.6962 50.3575 41.5306L48.6025 40.5715ZM39.9416 49.6399C36.2314 51.8303 32.092 52.9311 27.5 52.9311V54.9311C32.428 54.9311 36.922 53.7451 40.9584 51.3622L39.9416 49.6399ZM27.5 52.9311C22.9079 52.9311 18.794 51.8303 15.133 49.6426L14.107 51.3595C18.0993 53.7451 22.5721 54.9311 27.5 54.9311V52.9311ZM15.1284 49.6399C11.4148 47.4476 8.5331 44.4332 6.47178 40.5794L4.70821 41.5227C6.94023 45.6956 10.0785 48.9812 14.1116 51.3622L15.1284 49.6399ZM6.4675 40.5715C4.36178 36.7185 3.3 32.3826 3.3 27.5411H1.3C1.3 32.6862 2.43155 37.357 4.71249 41.5306L6.4675 40.5715ZM3.3 27.5411C3.3 22.6996 4.36178 18.3637 6.4675 14.5106L4.71249 13.5515C2.43155 17.7251 1.3 22.3959 1.3 27.5411H3.3ZM6.47178 14.5027C8.53476 10.6458 11.3954 7.63103 15.063 5.43947L14.037 3.72264C10.0512 6.10441 6.93857 9.3896 4.70821 13.5594L6.47178 14.5027ZM15.063 5.43947C18.7225 3.25269 22.8593 2.15105 27.5 2.15105V0.151053C22.5273 0.151053 18.0309 1.33608 14.037 3.72264L15.063 5.43947ZM27.5 2.15105C32.1407 2.15105 36.2775 3.25269 39.937 5.43947L40.963 3.72264C36.9691 1.33608 32.4727 0.151053 27.5 0.151053V2.15105ZM39.937 5.43947C43.6065 7.63217 46.4924 10.6496 48.6025 14.5106L50.3575 13.5515C48.081 9.38588 44.9469 6.10327 40.963 3.72264L39.937 5.43947ZM48.5982 14.5027C50.6599 18.3572 51.7 22.6959 51.7 27.5411H53.7C53.7 22.3995 52.5934 17.7316 50.3618 13.5594L48.5982 14.5027ZM45.72 27.5411C45.72 24.1212 44.9611 21.0119 43.4249 18.2367L41.6751 19.2054C43.0322 21.6569 43.72 24.4276 43.72 27.5411H45.72ZM43.4182 18.2249C41.8363 15.4565 39.6545 13.2747 36.8861 11.6928L35.8939 13.4293C38.3522 14.834 40.277 16.7589 41.6818 19.2172L43.4182 18.2249ZM36.8795 11.6891C34.0595 10.1059 30.9256 9.32105 27.5 9.32105V11.3211C30.6078 11.3211 33.4005 12.0296 35.9005 13.433L36.8795 11.6891ZM27.5 9.32105C24.0746 9.32105 20.961 10.1059 18.1839 11.6928L19.1761 13.4293C21.6256 12.0296 24.3921 11.3211 27.5 11.3211V9.32105ZM18.1905 11.6891C15.3721 13.2713 13.1837 15.4573 11.6451 18.2367L13.3949 19.2054C14.7496 16.7581 16.6679 14.8375 19.1695 13.433L18.1905 11.6891ZM11.6518 18.2249C10.0648 21.0021 9.28 24.1157 9.28 27.5411H11.28C11.28 24.4331 11.9885 21.6667 13.3882 19.2172L11.6518 18.2249ZM9.28 27.5411C9.28 30.9665 10.0648 34.08 11.6518 36.8572L13.3882 35.8649C11.9885 33.4154 11.28 30.649 11.28 27.5411H9.28ZM11.6451 36.8454C13.1837 39.6248 15.3721 41.8108 18.1905 43.393L19.1695 41.6491C16.6679 40.2446 14.7496 38.324 13.3949 35.8767L11.6451 36.8454ZM18.1839 43.3893C20.961 44.9763 24.0746 45.7611 27.5 45.7611V43.7611C24.3921 43.7611 21.6256 43.0525 19.1761 41.6528L18.1839 43.3893ZM27.5 45.7611C30.9256 45.7611 34.0595 44.9762 36.8795 43.393L35.9005 41.6491C33.4005 43.0525 30.6078 43.7611 27.5 43.7611V45.7611ZM36.8861 43.3893C39.6545 41.8074 41.8363 39.6256 43.4182 36.8572L41.6818 35.8649C40.277 38.3232 38.3522 40.2481 35.8939 41.6528L36.8861 43.3893ZM43.4249 36.8454C44.9611 34.0702 45.72 30.9609 45.72 27.5411H43.72C43.72 30.6546 43.0322 33.4252 41.6751 35.8767L43.4249 36.8454Z" fill="#FDF9FA"/>
</svg>
