<svg width="54" height="380" viewBox="0 415 54 400" fill="none" xmlns="http://www.w3.org/2000/svg">
<path d="M2 760.646L2.47382 759.766L0.999996 758.973V760.646H2ZM41.55 781.926L41.0762 782.807L41.0794 782.809L41.55 781.926ZM49.46 788.646L50.2897 788.088L50.2875 788.085L49.46 788.646ZM50.51 804.256L50.2107 805.21L51.071 805.48L51.4282 804.652L50.51 804.256ZM43.37 802.016L42.4168 801.714L42.1136 802.67L43.0707 802.97L43.37 802.016ZM39.73 789.976L39.1867 790.816L39.1965 790.822L39.73 789.976ZM38.54 789.206L39.0833 788.367L38.5884 788.046L38.0686 788.324L38.54 789.206ZM2 808.736H0.999996V810.405L2.47137 809.618L2 808.736ZM2 799.006L1.55018 798.113L0.999996 798.39V799.006H2ZM30.77 784.516L31.2198 785.409L32.9679 784.529L31.2301 783.628L30.77 784.516ZM2 769.606H0.999996V770.214L1.53987 770.494L2 769.606ZM1.52618 761.527L41.0762 782.807L42.0238 781.046L2.47382 759.766L1.52618 761.527ZM41.0794 782.809C44.4721 784.618 46.9707 786.759 48.6325 789.208L50.2875 788.085C48.4026 785.307 45.6279 782.968 42.0206 781.044L41.0794 782.809ZM48.6303 789.204C50.2483 791.609 51.05 794.216 51.05 797.046H53.05C53.05 793.81 52.125 790.816 50.2897 788.088L48.6303 789.204ZM51.05 797.046C51.05 799.328 50.5682 801.597 49.5918 803.86L51.4282 804.652C52.5051 802.156 53.05 799.618 53.05 797.046H51.05ZM50.8093 803.302L43.6693 801.062L43.0707 802.97L50.2107 805.21L50.8093 803.302ZM44.3232 802.318C44.9448 800.358 45.28 798.661 45.28 797.256H43.28C43.28 798.371 43.0085 799.848 42.4168 801.714L44.3232 802.318ZM45.28 797.256C45.28 793.894 43.5135 791.18 40.2635 789.13L39.1965 790.822C42.0132 792.599 43.28 794.738 43.28 797.256H45.28ZM40.2733 789.137L39.0833 788.367L37.9967 790.046L39.1867 790.816L40.2733 789.137ZM38.0686 788.324L1.52862 807.854L2.47137 809.618L39.0114 790.088L38.0686 788.324ZM3 808.736V799.006H0.999996V808.736H3ZM2.44982 799.899L31.2198 785.409L30.3202 783.623L1.55018 798.113L2.44982 799.899ZM31.2301 783.628L2.46012 768.718L1.53987 770.494L30.3099 785.404L31.2301 783.628ZM3 769.606V760.646H0.999996V769.606H3ZM25.45 728.079L24.5309 728.473L25.5898 730.944L26.4031 728.382L25.45 728.079ZM30 721.219L30.6139 722.009L30.6237 722.001L30.6332 721.993L30 721.219ZM44.98 721.569L45.6454 720.823L45.6374 720.816L44.98 721.569ZM49.95 729.269L49.0098 729.61L49.0114 729.614L49.95 729.269ZM50.37 749.569L51.3315 749.844L51.3338 749.836L51.336 749.828L50.37 749.569ZM46.24 758.669L45.8356 759.584L46.6144 759.928L47.0784 759.214L46.24 758.669ZM39.59 755.729L38.7607 755.17L38.0932 756.161L39.1856 756.644L39.59 755.729ZM42.95 748.589L43.9069 748.88L43.9093 748.872L43.9115 748.864L42.95 748.589ZM41.9 731.649L41.0368 732.154L41.0411 732.161L41.9 731.649ZM31.05 730.599L30.2045 730.065L31.05 730.599ZM29.37 749.359V750.359H30.37V749.359H29.37ZM22.23 749.359H21.23V750.359H22.23V749.359ZM20.55 732.279L19.7413 732.867L20.55 732.279ZM10.68 733.119L11.5324 733.642L11.5375 733.634L10.68 733.119ZM9.77 747.819L10.7378 747.568L10.7355 747.559L10.733 747.55L9.77 747.819ZM12.5 754.399L12.8637 755.331L13.9592 754.903L13.3609 753.89L12.5 754.399ZM5.15 757.269L4.269 757.742L4.68827 758.523L5.51373 758.201L5.15 757.269ZM2.14 749.289L3.11391 749.062L3.11107 749.05L2.14 749.289ZM2.77 730.809L3.70811 731.156L3.70979 731.151L2.77 730.809ZM7.6 723.459L8.25497 724.215L8.26331 724.208L7.6 723.459ZM26.4031 728.382C27.2853 725.603 28.698 723.499 30.6139 722.009L29.3861 720.43C27.102 722.206 25.4814 724.675 24.4969 727.777L26.4031 728.382ZM30.6332 721.993C32.4975 720.468 34.697 719.699 37.28 719.699V717.699C34.263 717.699 31.6092 718.611 29.3668 720.445L30.6332 721.993ZM37.28 719.699C39.981 719.699 42.3135 720.57 44.3226 722.323L45.6374 720.816C43.2599 718.742 40.459 717.699 37.28 717.699V719.699ZM44.3146 722.316C46.3158 724.099 47.8889 726.516 49.0098 729.61L50.8902 728.929C49.6778 725.582 47.9375 722.866 45.6454 720.823L44.3146 722.316ZM49.0114 729.614C50.133 732.665 50.7 736.023 50.7 739.699H52.7C52.7 735.815 52.1004 732.22 50.8886 728.924L49.0114 729.614ZM50.7 739.699C50.7 742.874 50.2692 746.077 49.404 749.311L51.336 749.828C52.2441 746.434 52.7 743.057 52.7 739.699H50.7ZM49.4085 749.294C48.502 752.467 47.1664 755.409 45.4016 758.124L47.0784 759.214C48.9536 756.329 50.3713 753.205 51.3315 749.844L49.4085 749.294ZM46.6443 757.755L39.9944 754.815L39.1856 756.644L45.8356 759.584L46.6443 757.755ZM40.4193 756.288C41.9246 754.054 43.0862 751.583 43.9069 748.88L41.9931 748.299C41.2271 750.822 40.1487 753.111 38.7607 755.17L40.4193 756.288ZM43.9115 748.864C44.6822 746.167 45.07 743.484 45.07 740.819H43.07C43.07 743.288 42.7111 745.785 41.9885 748.314L43.9115 748.864ZM45.07 740.819C45.07 737.006 44.322 733.759 42.7589 731.137L41.0411 732.161C42.3713 734.393 43.07 737.259 43.07 740.819H45.07ZM42.7632 731.144C41.1666 728.415 38.8799 726.939 35.95 726.939V728.939C38.0601 728.939 39.7401 729.937 41.0368 732.154L42.7632 731.144ZM35.95 726.939C33.47 726.939 31.5129 727.994 30.2045 730.065L31.8955 731.133C32.8271 729.658 34.1367 728.939 35.95 728.939V726.939ZM30.2045 730.065C28.9455 732.059 28.37 734.72 28.37 737.949H30.37C30.37 734.925 30.9145 732.687 31.8955 731.133L30.2045 730.065ZM28.37 737.949V749.359H30.37V737.949H28.37ZM29.37 748.359H22.23V750.359H29.37V748.359ZM23.23 749.359V738.649H21.23V749.359H23.23ZM23.23 738.649C23.23 735.817 22.6456 733.46 21.3587 731.691L19.7413 732.867C20.6944 734.178 21.23 736.068 21.23 738.649H23.23ZM21.3587 731.691C20.0495 729.891 18.2314 728.969 16 728.969V730.969C17.5952 730.969 18.8105 731.588 19.7413 732.867L21.3587 731.691ZM16 728.969C13.3328 728.969 11.2477 730.229 9.82251 732.605L11.5375 733.634C12.6323 731.809 14.0938 730.969 16 730.969V728.969ZM9.82767 732.596C8.44378 734.851 7.79 737.685 7.79 741.029H9.79C9.79 737.933 10.3962 735.494 11.5323 733.642L9.82767 732.596ZM7.79 741.029C7.79 743.323 8.13167 745.677 8.80703 748.089L10.733 747.55C10.1017 745.295 9.79 743.122 9.79 741.029H7.79ZM8.80217 748.071C9.43205 750.493 10.3778 752.773 11.6391 754.908L13.3609 753.89C12.1956 751.918 11.3213 749.812 10.7378 747.568L8.80217 748.071ZM12.1363 753.468L4.78627 756.338L5.51373 758.201L12.8637 755.331L12.1363 753.468ZM6.03099 756.796C4.71951 754.354 3.74728 751.777 3.11384 749.062L1.16616 749.516C1.83938 752.402 2.87382 755.144 4.269 757.742L6.03099 756.796ZM3.11107 749.05C2.42938 746.278 2.09 743.535 2.09 740.819H0.0899963C0.0899963 743.703 0.450611 746.607 1.16893 749.528L3.11107 749.05ZM2.09 740.819C2.09 737.283 2.63385 734.065 3.7081 731.156L1.8319 730.463C0.666143 733.62 0.0899963 737.076 0.0899963 740.819H2.09ZM3.70979 731.151C4.78209 728.202 6.30489 725.905 8.25493 724.215L6.94507 722.704C4.69511 724.653 2.99791 727.256 1.83021 730.467L3.70979 731.151ZM8.26331 724.208C10.1296 722.553 12.3189 721.729 14.88 721.729V719.729C11.8411 719.729 9.17702 720.725 6.93669 722.711L8.26331 724.208ZM14.88 721.729C17.1158 721.729 19.0311 722.327 20.6668 723.502L21.8332 721.877C19.8289 720.438 17.4976 719.729 14.88 719.729V721.729ZM20.6668 723.502C22.3228 724.69 23.6145 726.335 24.5309 728.473L26.3691 727.685C25.3255 725.25 23.8172 723.301 21.8332 721.877L20.6668 723.502ZM2 664.84V663.84H0.999996V664.84H2ZM51 664.84H52V663.84H51V664.84ZM51 673.94V674.94H52V673.94H51ZM30 673.94V672.94H29V673.94H30ZM30 699.28H29V700.28H30V699.28ZM51 699.28H52V698.28H51V699.28ZM51 708.38V709.38H52V708.38H51ZM2 708.38H0.999996V709.38H2V708.38ZM2 699.28V698.28H0.999996V699.28H2ZM22.23 699.28V700.28H23.23V699.28H22.23ZM22.23 673.94H23.23V672.94H22.23V673.94ZM2 673.94H0.999996V674.94H2V673.94ZM2 665.84H51V663.84H2V665.84ZM50 664.84V673.94H52V664.84H50ZM51 672.94H30V674.94H51V672.94ZM29 673.94V699.28H31V673.94H29ZM30 700.28H51V698.28H30V700.28ZM50 699.28L50 708.38H52L52 699.28H50ZM51 707.38H2V709.38H51V707.38ZM3 708.38V699.28H0.999996V708.38H3ZM2 700.28H22.23V698.28H2V700.28ZM23.23 699.28V673.94H21.23V699.28H23.23ZM22.23 672.94H2V674.94H22.23V672.94ZM3 673.94V664.84H0.999996V673.94H3ZM39.66 618.615L39.2633 617.697L38.66 617.958V618.615H39.66ZM39.66 643.115H38.66V643.776L39.2681 644.035L39.66 643.115ZM51 647.945H52V647.284L51.3919 647.025L51 647.945ZM51 657.325L50.5896 658.237L52 658.872V657.325H51ZM2 635.275H0.999996V635.922L1.58963 636.187L2 635.275ZM2 626.315L1.58855 625.404L0.999996 625.669V626.315H2ZM51 604.195H52V602.646L50.5886 603.284L51 604.195ZM51 613.715L51.3967 614.633L52 614.372V613.715H51ZM32.52 621.625H33.52V620.105L32.1239 620.707L32.52 621.625ZM11.1 630.865L10.7039 629.947L8.56723 630.869L10.7064 631.784L11.1 630.865ZM32.52 640.035L32.1264 640.954L33.52 641.551V640.035H32.52ZM38.66 618.615V643.115H40.66V618.615H38.66ZM39.2681 644.035L50.6081 648.865L51.3919 647.025L40.0519 642.195L39.2681 644.035ZM50 647.945V657.325H52V647.945H50ZM51.4104 656.413L2.41036 634.363L1.58963 636.187L50.5896 658.237L51.4104 656.413ZM3 635.275V626.315H0.999996V635.275H3ZM2.41144 627.227L51.4114 605.107L50.5886 603.284L1.58855 625.404L2.41144 627.227ZM50 604.195V613.715H52V604.195H50ZM50.6033 612.797L39.2633 617.697L40.0567 619.533L51.3967 614.633L50.6033 612.797ZM32.1239 620.707L10.7039 629.947L11.4961 631.783L32.9161 622.543L32.1239 620.707ZM10.7064 631.784L32.1264 640.954L32.9136 639.116L11.4936 629.946L10.7064 631.784ZM33.52 640.035V621.625H31.52V640.035H33.52ZM9.7 563.582H10.7V562.582H9.7V563.582ZM9.7 579.822H8.7V580.822H9.7V579.822ZM51 579.822H52V578.822H51V579.822ZM51 588.852V589.852H52V588.852H51ZM9.7 588.852V587.852H8.7V588.852H9.7ZM9.7 605.022V606.022H10.7V605.022H9.7ZM2 605.022H0.999996V606.022H2V605.022ZM2 563.582V562.582H0.999996V563.582H2ZM8.7 563.582V579.822H10.7V563.582H8.7ZM9.7 580.822H51V578.822H9.7V580.822ZM50 579.822V588.852H52V579.822H50ZM51 587.852H9.7V589.852H51V587.852ZM8.7 588.852V605.022H10.7V588.852H8.7ZM9.7 604.022H2V606.022H9.7V604.022ZM3 605.022V563.582H0.999996V605.022H3ZM2 564.582H9.7V562.582H2V564.582ZM22.58 519.614L23.3417 520.262L23.3468 520.256L23.3519 520.249L22.58 519.614ZM46.73 520.034L47.5017 519.398L47.4965 519.392L46.73 520.034ZM51 555.664V556.664H52V555.664H51ZM2 555.664H0.999996V556.664H2V555.664ZM2 546.704V545.704H0.999996V546.704H2ZM18.59 546.704V547.704H19.59V546.704H18.59ZM41.55 526.824L40.7894 527.473L41.55 526.824ZM25.52 546.704H24.52V547.704H25.52V546.704ZM44 546.704V547.704H45V546.704H44ZM19.59 533.124C19.59 527.38 20.8902 523.143 23.3417 520.262L21.8183 518.966C18.9498 522.338 17.59 527.107 17.59 533.124H19.59ZM23.3519 520.249C25.7274 517.365 29.3043 515.854 34.27 515.854V513.854C28.8757 513.854 24.6593 515.516 21.8081 518.978L23.3519 520.249ZM34.27 515.854C39.4532 515.854 43.2987 517.495 45.9635 520.676L47.4965 519.392C44.3747 515.665 39.9135 513.854 34.27 513.854V515.854ZM45.9584 520.67C48.6083 523.884 50 528.481 50 534.594H52C52 528.199 50.545 523.09 47.5016 519.398L45.9584 520.67ZM50 534.594V555.664H52V534.594H50ZM51 554.664H2V556.664H51V554.664ZM3 555.664V546.704H0.999996V555.664H3ZM2 547.704H18.59V545.704H2V547.704ZM19.59 546.704V533.124H17.59V546.704H19.59ZM45 535.014C45 531.326 44.1513 528.331 42.3106 526.174L40.7894 527.473C42.2154 529.143 43 531.609 43 535.014H45ZM42.3106 526.174C40.4423 523.986 37.7521 522.954 34.41 522.954V524.954C37.3212 524.954 39.3911 525.835 40.7894 527.473L42.3106 526.174ZM34.41 522.954C31.2276 522.954 28.6815 523.954 26.9631 526.092C25.2782 528.188 24.52 531.219 24.52 535.014H26.52C26.52 531.435 27.2435 528.936 28.5219 527.345C29.7668 525.797 31.6657 524.954 34.41 524.954V522.954ZM24.52 535.014V546.704H26.52V535.014H24.52ZM25.52 547.704H44V545.704H25.52V547.704ZM45 546.704V535.014H43V546.704H45ZM48.48 477.042L49.3575 477.522L49.3618 477.514L48.48 477.042ZM39.45 486.492L39.9584 487.353L39.963 487.351L39.45 486.492ZM13.62 486.492L14.133 485.634L14.1284 485.631L13.62 486.492ZM4.59 477.042L5.47182 476.571L5.4675 476.563L4.59 477.042ZM4.59 450.022L5.46754 450.502L5.47178 450.494L4.59 450.022ZM13.55 440.572L13.037 439.714H13.037L13.55 440.572ZM39.45 440.572L39.963 439.714L39.45 440.572ZM48.48 450.022L49.3618 449.551L49.3575 449.543L48.48 450.022ZM41.55 454.712L42.425 454.228L42.4182 454.216L41.55 454.712ZM35.39 448.552L35.8862 447.684L35.8795 447.68L35.39 448.552ZM17.68 448.552L18.1695 449.424L18.1761 449.421L17.68 448.552ZM11.52 454.712L12.3883 455.208L12.3949 455.197L11.52 454.712ZM11.52 472.352L12.395 471.868L12.3882 471.856L11.52 472.352ZM17.68 478.512L18.1762 477.644L18.1695 477.64L17.68 478.512ZM35.39 478.512L35.8795 479.384L35.8861 479.38L35.39 478.512ZM41.55 472.352L42.4183 472.848L42.4249 472.837L41.55 472.352ZM50.7 463.532C50.7 468.377 49.6599 472.716 47.5982 476.571L49.3618 477.514C51.5934 473.342 52.7 468.674 52.7 463.532H50.7ZM47.6025 476.563C45.4924 480.424 42.6065 483.441 38.937 485.634L39.963 487.351C43.9469 484.97 47.0809 481.687 49.3575 477.522L47.6025 476.563ZM38.9416 485.631C35.2314 487.822 31.092 488.922 26.5 488.922V490.922C31.428 490.922 35.922 489.736 39.9584 487.353L38.9416 485.631ZM26.5 488.922C21.9079 488.922 17.794 487.822 14.133 485.634L13.107 487.351C17.0993 489.736 21.5721 490.922 26.5 490.922V488.922ZM14.1284 485.631C10.4148 483.439 7.5331 480.424 5.47178 476.571L3.70821 477.514C5.94023 481.687 9.07851 484.972 13.1116 487.353L14.1284 485.631ZM5.4675 476.563C3.36178 472.71 2.3 468.374 2.3 463.532H0.299997C0.299997 468.677 1.43155 473.348 3.71249 477.522L5.4675 476.563ZM2.3 463.532C2.3 458.691 3.36178 454.355 5.4675 450.502L3.71249 449.543C1.43155 453.716 0.299997 458.387 0.299997 463.532H2.3ZM5.47178 450.494C7.53476 446.637 10.3954 443.622 14.063 441.431L13.037 439.714C9.05122 442.096 5.93857 445.381 3.70821 449.551L5.47178 450.494ZM14.063 441.431C17.7225 439.244 21.8593 438.142 26.5 438.142V436.142C21.5273 436.142 17.0309 437.327 13.037 439.714L14.063 441.431ZM26.5 438.142C31.1407 438.142 35.2775 439.244 38.937 441.431L39.963 439.714C35.9691 437.327 31.4727 436.142 26.5 436.142V438.142ZM38.937 441.431C42.6065 443.623 45.4924 446.641 47.6025 450.502L49.3575 449.543C47.0809 445.377 43.9469 442.094 39.963 439.714L38.937 441.431ZM47.5982 450.494C49.6599 454.348 50.7 458.687 50.7 463.532H52.7C52.7 458.391 51.5934 453.723 49.3618 449.551L47.5982 450.494ZM44.72 463.532C44.72 460.112 43.9612 457.003 42.4249 454.228L40.6751 455.197C42.0322 457.648 42.72 460.419 42.72 463.532H44.72ZM42.4182 454.216C40.8363 451.448 38.6545 449.266 35.8861 447.684L34.8939 449.421C37.3522 450.825 39.277 452.75 40.6818 455.208L42.4182 454.216ZM35.8795 447.68C33.0595 446.097 29.9256 445.312 26.5 445.312V447.312C29.6078 447.312 32.4005 448.021 34.9005 449.424L35.8795 447.68ZM26.5 445.312C23.0746 445.312 19.961 446.097 17.1839 447.684L18.1761 449.421C20.6256 448.021 23.3921 447.312 26.5 447.312V445.312ZM17.1905 447.68C14.3721 449.263 12.1837 451.449 10.6451 454.228L12.3949 455.197C13.7496 452.749 15.6679 450.829 18.1695 449.424L17.1905 447.68ZM10.6518 454.216C9.0648 456.993 8.28 460.107 8.28 463.532H10.28C10.28 460.424 10.9885 457.658 12.3882 455.208L10.6518 454.216ZM8.28 463.532C8.28 466.958 9.0648 470.071 10.6518 472.848L12.3882 471.856C10.9885 469.407 10.28 466.64 10.28 463.532H8.28ZM10.6451 472.837C12.1837 475.616 14.3721 477.802 17.1905 479.384L18.1695 477.64C15.6679 476.236 13.7496 474.315 12.3949 471.868L10.6451 472.837ZM17.1839 479.381C19.961 480.967 23.0746 481.752 26.5 481.752V479.752C23.3921 479.752 20.6256 479.044 18.1761 477.644L17.1839 479.381ZM26.5 481.752C29.9256 481.752 33.0595 480.967 35.8795 479.384L34.9005 477.64C32.4005 479.044 29.6078 479.752 26.5 479.752V481.752ZM35.8861 479.38C38.6545 477.799 40.8363 475.617 42.4182 472.848L40.6818 471.856C39.277 474.314 37.3522 476.239 34.8939 477.644L35.8861 479.38ZM42.4249 472.837C43.9612 470.061 44.72 466.952 44.72 463.532H42.72C42.72 466.646 42.0322 469.416 40.6751 471.868L42.4249  " fill="#FDF9FA"/>
</svg>
